<svg xmlns="http://www.w3.org/2000/svg" xmlns:xlink="http://www.w3.org/1999/xlink" width="14" height="19" viewBox="0 0 14 19"><defs><path id="ohiaa" d="M804.4 472.25c-.1-.26-.14-.6-.14-1.02 0-.42.02-.63.07-.63.14 0 .2.23.2.68 0 .46-.04.78-.13.97zm-.07 1.65c.33.61.74 1.1 1.23 1.44-.42.1-1 .28-1.72.57l-.5.2c.3-.56.64-1.3.99-2.2zm-3.3 4.4c.11-.3.47-.74 1.08-1.3l.14-.1c-.23.34-.45.65-.66.9-.14.2-.27.33-.4.4-.1.1-.17.12-.17.1zm10.47-9.43v11.54c0 .23-.08.43-.25.6a.81.81 0 0 1-.6.24h-11.8a.81.81 0 0 1-.6-.25.81.81 0 0 1-.25-.6v-16.3c0-.24.08-.44.25-.6a.81.81 0 0 1 .6-.25h7.02v4.78c0 .24.09.43.25.6.17.16.36.24.6.24zm-5.06 6.05a3.75 3.75 0 0 1-1.51-1.9l.03-.03c.12-.5.19-.87.21-1.13.07-.47.07-.83 0-1.09-.07-.32-.23-.55-.47-.66a1 1 0 0 0-.76-.06c-.26.08-.4.24-.46.48-.09.3-.1.69-.03 1.16.05.4.15.91.32 1.54a31.8 31.8 0 0 1-1.45 3.03c-.68.33-1.2.68-1.58 1.05-.51.52-.63.96-.35 1.34.1.12.22.2.37.26s.29.09.4.09c.3 0 .63-.17.97-.51.34-.34.73-.9 1.18-1.67l.53-.18a14.8 14.8 0 0 1 2.25-.63 5.45 5.45 0 0 0 2.25.67c.3 0 .53-.1.7-.28.16-.19.24-.4.23-.65a.84.84 0 0 0-.23-.58c-.38-.35-1.24-.44-2.6-.25zm4.81-7.98c.17.17.25.36.25.6v.21H807v-4.5h.21c.24 0 .43.08.6.25zm-2.6 8.97l-.1.03c-.1.02-.24.02-.43 0a8.77 8.77 0 0 1-.98-.35c.42-.02.77-.01 1.06.03.2.03.35.08.42.15.07.07.08.11.03.14z"/></defs><g><g transform="translate(-798 -463)"><use fill="#df0885" xlink:href="#ohiaa"/></g></g></svg>